%TF.GenerationSoftware,KiCad,Pcbnew,9.0.3*%
%TF.CreationDate,2025-07-11T18:10:02-07:00*%
%TF.ProjectId,hackpad,6861636b-7061-4642-9e6b-696361645f70,rev?*%
%TF.SameCoordinates,Original*%
%TF.FileFunction,Copper,L2,Bot*%
%TF.FilePolarity,Positive*%
%FSLAX46Y46*%
G04 Gerber Fmt 4.6, Leading zero omitted, Abs format (unit mm)*
G04 Created by KiCad (PCBNEW 9.0.3) date 2025-07-11 18:10:02*
%MOMM*%
%LPD*%
G01*
G04 APERTURE LIST*
%TA.AperFunction,ComponentPad*%
%ADD10C,2.200000*%
%TD*%
%TA.AperFunction,ComponentPad*%
%ADD11C,1.524000*%
%TD*%
%TA.AperFunction,ViaPad*%
%ADD12C,0.600000*%
%TD*%
%TA.AperFunction,Conductor*%
%ADD13C,0.200000*%
%TD*%
G04 APERTURE END LIST*
D10*
%TO.P,SW1,1,1*%
%TO.N,Net-(U1-GPIO3{slash}MOSI)*%
X145415000Y-30638750D03*
%TO.P,SW1,2,2*%
%TO.N,GND*%
X139065000Y-33178750D03*
%TD*%
%TO.P,SW2,1,1*%
%TO.N,Net-(U1-GPIO4{slash}MISO)*%
X126365000Y-49688750D03*
%TO.P,SW2,2,2*%
%TO.N,GND*%
X120015000Y-52228750D03*
%TD*%
%TO.P,SW3,1,1*%
%TO.N,Net-(U1-GPIO2{slash}SCK)*%
X164465000Y-49688750D03*
%TO.P,SW3,2,2*%
%TO.N,GND*%
X158115000Y-52228750D03*
%TD*%
D11*
%TO.P,U1,1,GPIO26/ADC0/A0*%
%TO.N,Net-(D3-DIN)*%
X112480000Y-43620000D03*
%TO.P,U1,2,GPIO27/ADC1/A1*%
%TO.N,unconnected-(U1-GPIO27{slash}ADC1{slash}A1-Pad2)*%
X115020000Y-43620000D03*
%TO.P,U1,3,GPIO28/ADC2/A2*%
%TO.N,unconnected-(U1-GPIO28{slash}ADC2{slash}A2-Pad3)*%
X117560000Y-43620000D03*
%TO.P,U1,4,GPIO29/ADC3/A3*%
%TO.N,unconnected-(U1-GPIO29{slash}ADC3{slash}A3-Pad4)*%
X120100000Y-43620000D03*
%TO.P,U1,5,GPIO6/SDA*%
%TO.N,Net-(D1-DIN)*%
X122640000Y-43620000D03*
%TO.P,U1,6,GPIO7/SCL*%
%TO.N,unconnected-(U1-GPIO7{slash}SCL-Pad6)*%
X125180000Y-43620000D03*
%TO.P,U1,7,GPIO0/TX*%
%TO.N,unconnected-(U1-GPIO0{slash}TX-Pad7)*%
X127720000Y-43620000D03*
%TO.P,U1,8,GPIO1/RX*%
%TO.N,Net-(U1-GPIO1{slash}RX)*%
X127720000Y-28380000D03*
%TO.P,U1,9,GPIO2/SCK*%
%TO.N,Net-(U1-GPIO2{slash}SCK)*%
X125180000Y-28380000D03*
%TO.P,U1,10,GPIO4/MISO*%
%TO.N,Net-(U1-GPIO4{slash}MISO)*%
X122640000Y-28380000D03*
%TO.P,U1,11,GPIO3/MOSI*%
%TO.N,Net-(U1-GPIO3{slash}MOSI)*%
X120100000Y-28380000D03*
%TO.P,U1,12,3V3*%
%TO.N,unconnected-(U1-3V3-Pad12)_1*%
X117560000Y-28380000D03*
%TO.P,U1,13,GND*%
%TO.N,GND*%
X115020000Y-28380000D03*
%TO.P,U1,14,VBUS*%
%TO.N,+5V*%
X112480000Y-28380000D03*
%TD*%
D10*
%TO.P,SW4,1,1*%
%TO.N,Net-(U1-GPIO1{slash}RX)*%
X145415000Y-49688750D03*
%TO.P,SW4,2,2*%
%TO.N,GND*%
X139065000Y-52228750D03*
%TD*%
D12*
%TO.N,+5V*%
X116681250Y-30956250D03*
%TO.N,Net-(D3-DIN)*%
X116681250Y-52828750D03*
%TO.N,Net-(U1-GPIO4{slash}MISO)*%
X126206250Y-33337500D03*
%TO.N,Net-(U1-GPIO2{slash}SCK)*%
X159543750Y-47625000D03*
%TO.N,Net-(U1-GPIO1{slash}RX)*%
X145256250Y-47025000D03*
X130968750Y-30038750D03*
%TD*%
D13*
%TO.N,+5V*%
X115337500Y-30956250D02*
X112480000Y-28098750D01*
X116681250Y-30956250D02*
X115337500Y-30956250D01*
%TO.N,Net-(D3-DIN)*%
X116681250Y-52387500D02*
X112480000Y-48186250D01*
X112480000Y-48186250D02*
X112480000Y-43338750D01*
X116681250Y-52828750D02*
X116681250Y-52387500D01*
%TO.N,Net-(U1-GPIO4{slash}MISO)*%
X122640000Y-29771250D02*
X122640000Y-28098750D01*
X126206250Y-33337500D02*
X122640000Y-29771250D01*
%TO.N,Net-(U1-GPIO2{slash}SCK)*%
X144706250Y-47625000D02*
X125180000Y-28098750D01*
X159543750Y-47625000D02*
X144706250Y-47625000D01*
%TO.N,Net-(U1-GPIO1{slash}RX)*%
X130968750Y-30038750D02*
X130968750Y-32737500D01*
X130968750Y-32737500D02*
X145256250Y-47025000D01*
%TD*%
M02*
