%TF.GenerationSoftware,KiCad,Pcbnew,9.0.3*%
%TF.CreationDate,2025-07-11T18:10:02-07:00*%
%TF.ProjectId,hackpad,6861636b-7061-4642-9e6b-696361645f70,rev?*%
%TF.SameCoordinates,Original*%
%TF.FileFunction,Soldermask,Top*%
%TF.FilePolarity,Negative*%
%FSLAX46Y46*%
G04 Gerber Fmt 4.6, Leading zero omitted, Abs format (unit mm)*
G04 Created by KiCad (PCBNEW 9.0.3) date 2025-07-11 18:10:02*
%MOMM*%
%LPD*%
G01*
G04 APERTURE LIST*
G04 Aperture macros list*
%AMRoundRect*
0 Rectangle with rounded corners*
0 $1 Rounding radius*
0 $2 $3 $4 $5 $6 $7 $8 $9 X,Y pos of 4 corners*
0 Add a 4 corners polygon primitive as box body*
4,1,4,$2,$3,$4,$5,$6,$7,$8,$9,$2,$3,0*
0 Add four circle primitives for the rounded corners*
1,1,$1+$1,$2,$3*
1,1,$1+$1,$4,$5*
1,1,$1+$1,$6,$7*
1,1,$1+$1,$8,$9*
0 Add four rect primitives between the rounded corners*
20,1,$1+$1,$2,$3,$4,$5,0*
20,1,$1+$1,$4,$5,$6,$7,0*
20,1,$1+$1,$6,$7,$8,$9,0*
20,1,$1+$1,$8,$9,$2,$3,0*%
G04 Aperture macros list end*
%ADD10C,1.700000*%
%ADD11C,4.000000*%
%ADD12C,2.200000*%
%ADD13R,0.850000X1.600000*%
%ADD14RoundRect,0.152400X-0.609600X1.063600X-0.609600X-1.063600X0.609600X-1.063600X0.609600X1.063600X0*%
%ADD15C,1.524000*%
%ADD16RoundRect,0.152400X0.609600X-1.063600X0.609600X1.063600X-0.609600X1.063600X-0.609600X-1.063600X0*%
%ADD17R,1.600000X0.850000*%
G04 APERTURE END LIST*
D10*
%TO.C,SW1*%
X137795000Y-35718750D03*
D11*
X142875000Y-35718750D03*
D10*
X147955000Y-35718750D03*
D12*
X145415000Y-30638750D03*
X139065000Y-33178750D03*
%TD*%
D13*
%TO.C,D1*%
X111043750Y-51756250D03*
X112793750Y-51756250D03*
X112793750Y-48256250D03*
X111043750Y-48256250D03*
%TD*%
D10*
%TO.C,SW2*%
X118745000Y-54768750D03*
D11*
X123825000Y-54768750D03*
D10*
X128905000Y-54768750D03*
D12*
X126365000Y-49688750D03*
X120015000Y-52228750D03*
%TD*%
D10*
%TO.C,SW3*%
X156845000Y-54768750D03*
D11*
X161925000Y-54768750D03*
D10*
X167005000Y-54768750D03*
D12*
X164465000Y-49688750D03*
X158115000Y-52228750D03*
%TD*%
D14*
%TO.C,U1*%
X112480000Y-44455000D03*
D15*
X112480000Y-43620000D03*
D14*
X115020000Y-44455000D03*
D15*
X115020000Y-43620000D03*
D14*
X117560000Y-44455000D03*
D15*
X117560000Y-43620000D03*
D14*
X120100000Y-44455000D03*
D15*
X120100000Y-43620000D03*
D14*
X122640000Y-44455000D03*
D15*
X122640000Y-43620000D03*
D14*
X125180000Y-44455000D03*
D15*
X125180000Y-43620000D03*
D14*
X127720000Y-44455000D03*
D15*
X127720000Y-43620000D03*
X127720000Y-28380000D03*
D16*
X127720000Y-27545000D03*
D15*
X125180000Y-28380000D03*
D16*
X125180000Y-27545000D03*
D15*
X122640000Y-28380000D03*
D16*
X122640000Y-27545000D03*
D15*
X120100000Y-28380000D03*
D16*
X120100000Y-27545000D03*
D15*
X117560000Y-28380000D03*
D16*
X117560000Y-27545000D03*
D15*
X115020000Y-28380000D03*
D16*
X115020000Y-27545000D03*
D15*
X112480000Y-28380000D03*
D16*
X112480000Y-27545000D03*
%TD*%
D13*
%TO.C,D2*%
X111043750Y-59531250D03*
X112793750Y-59531250D03*
X112793750Y-56031250D03*
X111043750Y-56031250D03*
%TD*%
D17*
%TO.C,D3*%
X160806250Y-34843750D03*
X160806250Y-36593750D03*
X164306250Y-36593750D03*
X164306250Y-34843750D03*
%TD*%
D10*
%TO.C,SW4*%
X137795000Y-54768750D03*
D11*
X142875000Y-54768750D03*
D10*
X147955000Y-54768750D03*
D12*
X145415000Y-49688750D03*
X139065000Y-52228750D03*
%TD*%
M02*
